<svg width="429" height="556" viewBox="0 0 429 556" fill="none" xmlns="http://www.w3.org/2000/svg">
    <path d="M143.5 265L134.5 255.5L126.5 246.5C125.167 243.667 122.2 237.4 121 235C119.5 232 120 233 115.5 231.5C111.9 230.3 109.333 227.667 108.5 226.5C105.333 222.167 98.3 212.3 95.5 207.5C92 201.5 91.5 200 91.5 190C91.5 182 92.5 180 93 180C93.5 179.167 95 176.8 97 174C99 171.2 97.8333 166.5 97 164.5C96.8333 163.833 95.5 160.6 91.5 153C86.5 143.5 84 128.5 83 116.5C82 104.5 86 78 90 62C93.2 49.2 100.333 36.6667 103.5 32C107.833 26 117.5 13.2 121.5 10C125.5 6.80003 135.833 3.33335 140.5 2.00001C147.167 1.50001 162.6 0.800015 171 2.00001C179.4 3.20001 188.833 7.83335 192.5 10L211 24.5C218.333 30.5 234.7 45.7 241.5 58.5C248.3 71.3 251.667 82.1667 252.5 86L256 113C256.833 116.333 258.5 123.6 258.5 126C258.5 128.4 259.833 130.333 260.5 131L266.5 132C266.5 132.774 266.367 133.049 266.289 133.134C266.529 133.077 267.661 133.21 271.5 136.5C275.5 141.3 277.167 146.167 277.5 148C277.667 157.333 277.9 176.7 277.5 179.5C277.1 182.3 273.333 186.333 271.5 188C269.333 189.167 264.9 192 264.5 194C264 196.5 265 199 266.5 202.5C267.7 205.3 267 207.667 266.5 208.5C264.5 211.167 260.5 218.3 260.5 225.5C260.5 234.5 265.5 252.5 266.5 256.5C267.3 259.7 269.167 260.5 270 260.5L280 262L300.5 270.5C306.667 272 322 275 334 275C346 275 354.667 276 357.5 276.5C370 279 398.2 284.6 411 287C423.8 289.4 427.667 297.333 428 301C427.667 375.833 427.2 528.5 428 540.5C428.8 552.5 424.333 554.167 422 553.5L217.5 555H121.5H7.50001C1.50001 557.4 0.66668 549.667 1.00001 545.5V455.5C1.16668 443 1.40001 415.3 1.00001 404.5C0.600013 393.7 4.50001 385.667 6.50001 383L20.5 366.5L38.5 345C41.8333 341.333 49.6 332.9 54 328.5C58.4 324.1 59.1667 324.333 59 325L77.5 318L96.5 311.5L114 302L125 293C129.833 289.333 139.8 282 141 282C142.2 282 144.5 279.333 145.5 278V269C145.5 267.4 144.167 265.667 143.5 265Z" fill="#E9C46A"/>
    <path d="M134.5 255.5L143.5 265C144.167 265.667 145.5 267.4 145.5 269C145.5 270.6 145.5 275.667 145.5 278C144.5 279.333 142.2 282 141 282C139.8 282 129.833 289.333 125 293L114 302L96.5 311.5L77.5 318L59 325C59.1667 324.333 58.4 324.1 54 328.5C49.6 332.9 41.8333 341.333 38.5 345L20.5 366.5L6.50001 383C4.50001 385.667 0.600013 393.7 1.00001 404.5C1.40001 415.3 1.16668 443 1.00001 455.5V545.5C0.66668 549.667 1.50001 557.4 7.50001 555H121.5H217.5L422 553.5C424.333 554.167 428.8 552.5 428 540.5C427.2 528.5 427.667 375.833 428 301C427.667 297.333 423.8 289.4 411 287C398.2 284.6 370 279 357.5 276.5C354.667 276 346 275 334 275C322 275 306.667 272 300.5 270.5L280 262L270 260.5C269.167 260.5 267.3 259.7 266.5 256.5C265.5 252.5 260.5 234.5 260.5 225.5C260.5 218.3 264.5 211.167 266.5 208.5C267 207.667 267.7 205.3 266.5 202.5C265 199 264 196.5 264.5 194C264.9 192 269.333 189.167 271.5 188C273.333 186.333 277.1 182.3 277.5 179.5C277.9 176.7 277.667 157.333 277.5 148C277.167 146.167 275.5 141.3 271.5 136.5C264.5 130.5 266.5 135 266.5 132L260.5 131C259.833 130.333 258.5 128.4 258.5 126C258.5 123.6 256.833 116.333 256 113L252.5 86C251.667 82.1667 248.3 71.3 241.5 58.5C234.7 45.7 218.333 30.5 211 24.5L192.5 10C188.833 7.83335 179.4 3.20001 171 2.00001C162.6 0.800015 147.167 1.50001 140.5 2.00001C135.833 3.33335 125.5 6.80003 121.5 10C117.5 13.2 107.833 26 103.5 32C100.333 36.6667 93.2 49.2 90 62C86 78 82 104.5 83 116.5C84 128.5 86.5 143.5 91.5 153C95.5 160.6 96.8333 163.833 97 164.5C97.8333 166.5 99 171.2 97 174C95 176.8 93.5 179.167 93 180C92.5 180 91.5 182 91.5 190C91.5 200 92 201.5 95.5 207.5C98.3 212.3 105.333 222.167 108.5 226.5C109.333 227.667 111.9 230.3 115.5 231.5C120 233 119.5 232 121 235C122.2 237.4 125.167 243.667 126.5 246.5L134.5 255.5Z" stroke="#E9C46A"/>
</svg>
