<svg width="447" height="571" viewBox="0 0 447 571" fill="none" xmlns="http://www.w3.org/2000/svg">
    <path d="M2.50001 559.5C-0.699991 553.5 1.16668 457.333 2.50001 410C1.30002 403.2 4.00001 395.5 5.5 392.5C19.5 375.167 48.6 339.4 53 335C57.4 330.6 64.8333 327.5 68 326.5L124.5 300.5C130.333 296.5 142.8 287.9 146 285.5C149.2 283.1 147.333 276.833 146 274L128 254C127.5 250.5 125.6 243.6 122 244C118.4 244.4 115.167 241.833 114 240.5C108 232.167 95.6 214 94 208C92.4 202 92.6667 198.167 93 197C92.8333 195.833 92.8 192.5 94 188.5C95.2 184.5 96.5 183.167 97 183C97.6667 181.833 99.1 179.1 99.5 177.5C99.9 175.9 97.3333 173.167 96 172C83.2 154 81.3333 134.5 82 127C83.1667 111.167 86.8 75.1 92 57.5C97.2 39.9 108.167 26.1667 113 21.5C121.667 13.5 144.6 -1.60002 167 1.99998C189.4 5.59998 198.333 9.49998 200 11C210 20.3333 232.8 41.8 244 53C255.2 64.2 260 82.3333 261 90C261.167 95 261.9 108.1 263.5 120.5C265.1 132.9 267.833 135 269 134.5C275.8 133.7 278.833 136.5 279.5 138C286 151 296.7 179.5 287.5 189.5C278.3 199.5 272 221.667 270 231.5C270.333 237.833 271.4 251.9 273 257.5C274.6 263.1 277 264.5 278 264.5C282 264.667 291 265.6 295 268C299 270.4 309.667 272 314.5 272.5C336.5 271.7 356.333 273.833 363.5 275C378.667 278.333 412.5 286.1 426.5 290.5C440.5 294.9 444.333 306.667 444.5 312C446 393 447.3 556.2 440.5 561C433.7 565.8 426.667 567.333 424 567.5C288.667 569.167 16.8 571.9 12 569.5C6 566.5 6.50001 567 2.50001 559.5Z" fill="#16697A" stroke="#16697A"/>
</svg>
