<svg xmlns="http://www.w3.org/2000/svg" xmlns:xlink="http://www.w3.org/1999/xlink" aria-hidden="true" role="img" width="1em" height="1em" preserveAspectRatio="xMidYMid meet" viewBox="0 0 24 24"><g fill="none"><path fill-rule="evenodd" clip-rule="evenodd" d="M17 5H7a1 1 0 0 0-1 1v12a1 1 0 0 0 1 1h10a1 1 0 0 0 1-1V6a1 1 0 0 0-1-1zM7 3a3 3 0 0 0-3 3v12a3 3 0 0 0 3 3h10a3 3 0 0 0 3-3V6a3 3 0 0 0-3-3H7z" fill="currentColor"/><path d="M8 7h8v2H8V7z" fill="currentColor"/><path d="M8 11h8v2H8v-2z" fill="currentColor"/><path d="M8 15h5v2H8v-2z" fill="currentColor"/></g></svg>